# xmcd
#
# Track frame offsets: 
#        150
#        17020
#        45590
#        64100
#        74872
#        92207
#        112944
#        130547
#        144937
#        169459
#        183994
#        203714
#        220229
#        245797
#        262299
#        286019
#        302752
#        306579
#
# Disc length: 4444 seconds
#
# Revision: 0
# Processed by: cddbd v1.5.2PL0 Copyright (c) Steve Scherf et al.
# Submitted via: ExactAudioCopy v0.95b3
#
DISCID=16115a12
DTITLE=The Alan Parsons Project  - Freudiana  FLAC
DYEAR=1900
DGENRE=
TTITLE0=The Nirvana Principle instrumental
TTITLE1=Freudiana vocal Eric Woolfson
TTITLE2=I Am A Mirror vocal Leo Sayer
TTITLE3=Little Hans vocal Graham Dye
TTITLE4=Dora vocal Eric Woolfson
TTITLE5=Funny You Should Say That vocal The Flying Pickets
TTITLE6=You're On Your Own vocal Kiki Dee
TTITLE7=Far Away From Home vocal The Flying Pickets
TTITLE8=Let Yourself Go vocal Eric Woolfson
TTITLE9=Beyond The Pleasure Principle instrumental
TTITLE10=The Ring vocal Eric Stewart
TTITLE11=Sects Therapy vocal Frankie Howerd
TTITLE12=No One Can Love You Better Than Me vocal Kiki Dee, Marti Webb
TTITLE12=, Gary Howard and Eric Woolfson
TTITLE13=Don't Let The Moment Pass vocal Marti Webb
TTITLE14=Upper Me vocal Eric Stewart
TTITLE15=Freudiana instrumental
TTITLE16=Destiny vocal Chris Rainbow
TTITLE17=There But For The Grace Of God vocal John Miles
EXTD=
EXTT0=
EXTT1=
EXTT2=
EXTT3=
EXTT4=
EXTT5=
EXTT6=
EXTT7=
EXTT8=
EXTT9=
EXTT10=
EXTT11=
EXTT12=
EXTT13=
EXTT14=
EXTT15=
EXTT16=
EXTT17=
PLAYORDER=
